<svg width="93" height="16" viewBox="0 0 93 16" fill="none" xmlns="http://www.w3.org/2000/svg">
<path d="M0.4 15V13.45C0.753333 13.4833 1.04667 13.4667 1.28 13.4C1.51333 13.3333 1.70333 13.19 1.85 12.97C2.00333 12.75 2.13667 12.43 2.25 12.01C2.36333 11.5833 2.47333 11.03 2.58 10.35C2.72 9.55 2.83667 8.74333 2.93 7.93C3.02333 7.11 3.10333 6.29 3.17 5.47C3.24333 4.64333 3.30333 3.82333 3.35 3.01C3.39667 2.19 3.43667 1.38667 3.47 0.599999H12.74V15H10.96V2.29H5.16C5.12 2.89667 5.07667 3.54667 5.03 4.24C4.99 4.92667 4.93667 5.64333 4.87 6.39C4.80333 7.13667 4.72333 7.90667 4.63 8.7C4.53667 9.49333 4.42 10.3 4.28 11.12C4.16667 11.78 4.03 12.3833 3.87 12.93C3.71667 13.4767 3.5 13.9333 3.22 14.3C2.94667 14.6667 2.58333 14.9167 2.13 15.05C1.68333 15.1833 1.10667 15.1667 0.4 15ZM21.4606 15.3C20.0273 15.3 18.8106 14.9833 17.8106 14.35C16.8106 13.7167 16.0473 12.8367 15.5206 11.71C15.0006 10.5833 14.7406 9.28 14.7406 7.8C14.7406 6.32 15.0006 5.01667 15.5206 3.89C16.0473 2.76333 16.8106 1.88333 17.8106 1.25C18.8106 0.616666 20.0273 0.3 21.4606 0.3C22.9006 0.3 24.1206 0.616666 25.1206 1.25C26.1206 1.88333 26.8806 2.76333 27.4006 3.89C27.9206 5.01667 28.1806 6.32 28.1806 7.8C28.1806 9.28 27.9206 10.5833 27.4006 11.71C26.8806 12.8367 26.1206 13.7167 25.1206 14.35C24.1206 14.9833 22.9006 15.3 21.4606 15.3ZM21.4606 13.6C22.534 13.6067 23.4273 13.3667 24.1406 12.88C24.8606 12.3867 25.3973 11.7033 25.7506 10.83C26.1106 9.95667 26.2906 8.94667 26.2906 7.8C26.2906 6.64667 26.1106 5.63667 25.7506 4.77C25.3973 3.90333 24.8606 3.22667 24.1406 2.74C23.4273 2.25333 22.534 2.00667 21.4606 2C20.3873 1.99333 19.494 2.23333 18.7806 2.72C18.074 3.20667 17.5406 3.88667 17.1806 4.76C16.8206 5.63333 16.6373 6.64667 16.6306 7.8C16.624 8.94667 16.8006 9.95333 17.1606 10.82C17.5206 11.6867 18.0573 12.3667 18.7706 12.86C19.4906 13.3467 20.3873 13.5933 21.4606 13.6ZM30.1891 15V0.599999H39.2891V2.29H31.9691V15H30.1891ZM46.8122 15.3C45.3789 15.3 44.1622 14.9833 43.1622 14.35C42.1622 13.7167 41.3989 12.8367 40.8722 11.71C40.3522 10.5833 40.0922 9.28 40.0922 7.8C40.0922 6.32 40.3522 5.01667 40.8722 3.89C41.3989 2.76333 42.1622 1.88333 43.1622 1.25C44.1622 0.616666 45.3789 0.3 46.8122 0.3C48.2522 0.3 49.4722 0.616666 50.4722 1.25C51.4722 1.88333 52.2322 2.76333 52.7522 3.89C53.2722 5.01667 53.5322 6.32 53.5322 7.8C53.5322 9.28 53.2722 10.5833 52.7522 11.71C52.2322 12.8367 51.4722 13.7167 50.4722 14.35C49.4722 14.9833 48.2522 15.3 46.8122 15.3ZM46.8122 13.6C47.8855 13.6067 48.7789 13.3667 49.4922 12.88C50.2122 12.3867 50.7489 11.7033 51.1022 10.83C51.4622 9.95667 51.6422 8.94667 51.6422 7.8C51.6422 6.64667 51.4622 5.63667 51.1022 4.77C50.7489 3.90333 50.2122 3.22667 49.4922 2.74C48.7789 2.25333 47.8855 2.00667 46.8122 2C45.7389 1.99333 44.8455 2.23333 44.1322 2.72C43.4255 3.20667 42.8922 3.88667 42.5322 4.76C42.1722 5.63333 41.9889 6.64667 41.9822 7.8C41.9755 8.94667 42.1522 9.95333 42.5122 10.82C42.8722 11.6867 43.4089 12.3667 44.1222 12.86C44.8422 13.3467 45.7389 13.5933 46.8122 13.6ZM58.86 15V2.29H53.95V0.599999H65.55V2.29H60.64V15H58.86ZM78.2522 15H76.4522V3.74L68.9422 15H67.1422V0.599999H68.9422V11.85L76.4522 0.599999H78.2522V15ZM81.0484 15V0.599999H92.2884V15H90.5084V2.29H82.8284V15H81.0484Z" fill="white"/>
</svg>
